<svg width="467" height="69" viewBox="0 0 467 69" fill="none" xmlns="http://www.w3.org/2000/svg">
<path d="M110.104 30.8945C110.104 32.1959 109.805 33.3905 109.208 34.4785C108.611 35.5452 107.693 36.4092 106.456 37.0705C105.219 37.7319 103.683 38.0625 101.848 38.0625H98.456V46.1265H92.984V23.6625H101.848C103.64 23.6625 105.155 23.9719 106.392 24.5905C107.629 25.2092 108.557 26.0625 109.176 27.1505C109.795 28.2385 110.104 29.4865 110.104 30.8945ZM101.432 33.7105C102.477 33.7105 103.256 33.4652 103.768 32.9745C104.28 32.4839 104.536 31.7905 104.536 30.8945C104.536 29.9985 104.28 29.3052 103.768 28.8145C103.256 28.3239 102.477 28.0785 101.432 28.0785H98.456V33.7105H101.432ZM111.865 37.1665C111.865 35.3319 112.206 33.7212 112.889 32.3345C113.593 30.9479 114.542 29.8812 115.737 29.1345C116.931 28.3879 118.265 28.0145 119.737 28.0145C120.995 28.0145 122.094 28.2705 123.033 28.7825C123.993 29.2945 124.729 29.9665 125.241 30.7985V28.2705H130.713V46.1265H125.241V43.5985C124.707 44.4305 123.961 45.1025 123.001 45.6145C122.062 46.1265 120.963 46.3825 119.705 46.3825C118.254 46.3825 116.931 46.0092 115.737 45.2625C114.542 44.4945 113.593 43.4172 112.889 42.0305C112.206 40.6225 111.865 39.0012 111.865 37.1665ZM125.241 37.1985C125.241 35.8332 124.857 34.7559 124.089 33.9665C123.342 33.1772 122.425 32.7825 121.337 32.7825C120.249 32.7825 119.321 33.1772 118.553 33.9665C117.806 34.7345 117.433 35.8012 117.433 37.1665C117.433 38.5319 117.806 39.6199 118.553 40.4305C119.321 41.2199 120.249 41.6145 121.337 41.6145C122.425 41.6145 123.342 41.2199 124.089 40.4305C124.857 39.6412 125.241 38.5639 125.241 37.1985ZM140.56 28.2705V46.1265H135.088V28.2705H140.56ZM141.552 23.8225L133.84 27.0545V23.2785L141.552 19.5665V23.8225ZM152.217 46.3825C150.659 46.3825 149.273 46.1159 148.057 45.5825C146.841 45.0492 145.881 44.3239 145.177 43.4065C144.473 42.4679 144.078 41.4225 143.993 40.2705H149.401C149.465 40.8892 149.753 41.3905 150.265 41.7745C150.777 42.1585 151.406 42.3505 152.153 42.3505C152.835 42.3505 153.358 42.2225 153.721 41.9665C154.105 41.6892 154.297 41.3372 154.297 40.9105C154.297 40.3985 154.03 40.0252 153.497 39.7905C152.963 39.5345 152.099 39.2572 150.905 38.9585C149.625 38.6599 148.558 38.3505 147.705 38.0305C146.851 37.6892 146.115 37.1665 145.497 36.4625C144.878 35.7372 144.569 34.7665 144.569 33.5505C144.569 32.5265 144.846 31.5985 145.401 30.7665C145.977 29.9132 146.809 29.2412 147.897 28.7505C149.006 28.2599 150.318 28.0145 151.833 28.0145C154.073 28.0145 155.833 28.5692 157.113 29.6785C158.414 30.7879 159.161 32.2599 159.353 34.0945H154.297C154.211 33.4759 153.934 32.9852 153.465 32.6225C153.017 32.2599 152.419 32.0785 151.673 32.0785C151.033 32.0785 150.542 32.2065 150.201 32.4625C149.859 32.6972 149.689 33.0279 149.689 33.4545C149.689 33.9665 149.955 34.3505 150.489 34.6065C151.043 34.8625 151.897 35.1185 153.049 35.3745C154.371 35.7159 155.449 36.0572 156.281 36.3985C157.113 36.7185 157.838 37.2519 158.457 37.9985C159.097 38.7239 159.427 39.7052 159.449 40.9425C159.449 41.9879 159.15 42.9265 158.553 43.7585C157.977 44.5692 157.134 45.2092 156.025 45.6785C154.937 46.1479 153.667 46.3825 152.217 46.3825ZM179.628 36.9105C179.628 37.4225 179.597 37.9559 179.533 38.5105H167.149C167.234 39.6199 167.586 40.4732 168.205 41.0705C168.845 41.6465 169.623 41.9345 170.541 41.9345C171.906 41.9345 172.855 41.3585 173.389 40.2065H179.213C178.914 41.3799 178.37 42.4359 177.581 43.3745C176.813 44.3132 175.842 45.0492 174.669 45.5825C173.495 46.1159 172.183 46.3825 170.733 46.3825C168.983 46.3825 167.426 46.0092 166.061 45.2625C164.695 44.5159 163.629 43.4492 162.861 42.0625C162.093 40.6759 161.709 39.0545 161.709 37.1985C161.709 35.3425 162.082 33.7212 162.829 32.3345C163.597 30.9479 164.663 29.8812 166.029 29.1345C167.394 28.3879 168.962 28.0145 170.733 28.0145C172.461 28.0145 173.997 28.3772 175.341 29.1025C176.685 29.8279 177.73 30.8625 178.477 32.2065C179.245 33.5505 179.628 35.1185 179.628 36.9105ZM174.029 35.4705C174.029 34.5319 173.709 33.7852 173.069 33.2305C172.429 32.6759 171.629 32.3985 170.669 32.3985C169.751 32.3985 168.973 32.6652 168.333 33.1985C167.714 33.7319 167.33 34.4892 167.181 35.4705H174.029ZM189.779 46.3825C188.222 46.3825 186.835 46.1159 185.619 45.5825C184.403 45.0492 183.443 44.3239 182.739 43.4065C182.035 42.4679 181.641 41.4225 181.555 40.2705H186.963C187.027 40.8892 187.315 41.3905 187.827 41.7745C188.339 42.1585 188.969 42.3505 189.715 42.3505C190.398 42.3505 190.921 42.2225 191.283 41.9665C191.667 41.6892 191.859 41.3372 191.859 40.9105C191.859 40.3985 191.593 40.0252 191.059 39.7905C190.526 39.5345 189.662 39.2572 188.467 38.9585C187.187 38.6599 186.121 38.3505 185.267 38.0305C184.414 37.6892 183.678 37.1665 183.059 36.4625C182.441 35.7372 182.131 34.7665 182.131 33.5505C182.131 32.5265 182.409 31.5985 182.963 30.7665C183.539 29.9132 184.371 29.2412 185.459 28.7505C186.569 28.2599 187.881 28.0145 189.395 28.0145C191.635 28.0145 193.395 28.5692 194.675 29.6785C195.977 30.7879 196.723 32.2599 196.915 34.0945H191.859C191.774 33.4759 191.497 32.9852 191.027 32.6225C190.579 32.2599 189.982 32.0785 189.235 32.0785C188.595 32.0785 188.105 32.2065 187.763 32.4625C187.422 32.6972 187.251 33.0279 187.251 33.4545C187.251 33.9665 187.518 34.3505 188.051 34.6065C188.606 34.8625 189.459 35.1185 190.611 35.3745C191.934 35.7159 193.011 36.0572 193.843 36.3985C194.675 36.7185 195.401 37.2519 196.019 37.9985C196.659 38.7239 196.99 39.7052 197.011 40.9425C197.011 41.9879 196.713 42.9265 196.115 43.7585C195.539 44.5692 194.697 45.2092 193.587 45.6785C192.499 46.1479 191.23 46.3825 189.779 46.3825Z" fill="black"/>
<path d="M212.282 31.8545C212.88 30.8092 213.754 29.9559 214.906 29.2945C216.058 28.6332 217.37 28.3025 218.842 28.3025C220.421 28.3025 221.84 28.6759 223.098 29.4225C224.357 30.1692 225.349 31.2252 226.074 32.5905C226.8 33.9345 227.162 35.5025 227.162 37.2945C227.162 39.0652 226.8 40.6439 226.074 42.0305C225.349 43.4172 224.346 44.4945 223.066 45.2625C221.808 46.0305 220.4 46.4145 218.842 46.4145C217.328 46.4145 215.994 46.0839 214.842 45.4225C213.712 44.7612 212.858 43.9185 212.282 42.8945V46.1265H209.37V22.4465H212.282V31.8545ZM224.186 37.2945C224.186 35.9719 223.92 34.8199 223.386 33.8385C222.853 32.8572 222.128 32.1105 221.21 31.5985C220.314 31.0865 219.322 30.8305 218.234 30.8305C217.168 30.8305 216.176 31.0972 215.258 31.6305C214.362 32.1425 213.637 32.8999 213.082 33.9025C212.549 34.8839 212.282 36.0252 212.282 37.3265C212.282 38.6492 212.549 39.8119 213.082 40.8145C213.637 41.7959 214.362 42.5532 215.258 43.0865C216.176 43.5985 217.168 43.8545 218.234 43.8545C219.322 43.8545 220.314 43.5985 221.21 43.0865C222.128 42.5532 222.853 41.7959 223.386 40.8145C223.92 39.8119 224.186 38.6385 224.186 37.2945ZM246.099 28.5905L235.539 54.3825H232.531L235.987 45.9345L228.915 28.5905H232.147L237.651 42.7985L243.091 28.5905H246.099ZM272.47 30.3505C272.47 32.2065 271.83 33.7532 270.55 34.9905C269.291 36.2065 267.36 36.8145 264.758 36.8145H260.47V46.1265H257.558V23.8225H264.758C267.275 23.8225 269.184 24.4305 270.486 25.6465C271.808 26.8625 272.47 28.4305 272.47 30.3505ZM264.758 34.4145C266.379 34.4145 267.574 34.0625 268.342 33.3585C269.11 32.6545 269.494 31.6519 269.494 30.3505C269.494 27.5985 267.915 26.2225 264.758 26.2225H260.47V34.4145H264.758ZM279.001 23.8225V46.1265H276.089V23.8225H279.001ZM291.407 34.9585C291.407 32.7825 291.898 30.8305 292.879 29.1025C293.861 27.3532 295.194 25.9879 296.879 25.0065C298.586 24.0252 300.474 23.5345 302.543 23.5345C304.975 23.5345 307.098 24.1212 308.911 25.2945C310.725 26.4679 312.047 28.1319 312.879 30.2865H309.391C308.773 28.9425 307.877 27.9079 306.703 27.1825C305.551 26.4572 304.165 26.0945 302.543 26.0945C300.986 26.0945 299.589 26.4572 298.351 27.1825C297.114 27.9079 296.143 28.9425 295.439 30.2865C294.735 31.6092 294.383 33.1665 294.383 34.9585C294.383 36.7292 294.735 38.2865 295.439 39.6305C296.143 40.9532 297.114 41.9772 298.351 42.7025C299.589 43.4279 300.986 43.7905 302.543 43.7905C304.165 43.7905 305.551 43.4385 306.703 42.7345C307.877 42.0092 308.773 40.9745 309.391 39.6305H312.879C312.047 41.7639 310.725 43.4172 308.911 44.5905C307.098 45.7425 304.975 46.3185 302.543 46.3185C300.474 46.3185 298.586 45.8385 296.879 44.8785C295.194 43.8972 293.861 42.5425 292.879 40.8145C291.898 39.0865 291.407 37.1345 291.407 34.9585ZM327.326 46.3505C325.257 46.3505 323.369 45.8705 321.662 44.9105C319.955 43.9292 318.601 42.5745 317.598 40.8465C316.617 39.0972 316.126 37.1345 316.126 34.9585C316.126 32.7825 316.617 30.8305 317.598 29.1025C318.601 27.3532 319.955 25.9985 321.662 25.0385C323.369 24.0572 325.257 23.5665 327.326 23.5665C329.417 23.5665 331.315 24.0572 333.022 25.0385C334.729 25.9985 336.073 27.3425 337.054 29.0705C338.035 30.7985 338.526 32.7612 338.526 34.9585C338.526 37.1559 338.035 39.1185 337.054 40.8465C336.073 42.5745 334.729 43.9292 333.022 44.9105C331.315 45.8705 329.417 46.3505 327.326 46.3505ZM327.326 43.8225C328.883 43.8225 330.281 43.4599 331.518 42.7345C332.777 42.0092 333.758 40.9745 334.462 39.6305C335.187 38.2865 335.55 36.7292 335.55 34.9585C335.55 33.1665 335.187 31.6092 334.462 30.2865C333.758 28.9425 332.787 27.9079 331.55 27.1825C330.313 26.4572 328.905 26.0945 327.326 26.0945C325.747 26.0945 324.339 26.4572 323.102 27.1825C321.865 27.9079 320.883 28.9425 320.158 30.2865C319.454 31.6092 319.102 33.1665 319.102 34.9585C319.102 36.7292 319.454 38.2865 320.158 39.6305C320.883 40.9745 321.865 42.0092 323.102 42.7345C324.361 43.4599 325.769 43.8225 327.326 43.8225ZM345.218 23.8225V37.9345C345.218 39.9185 345.698 41.3905 346.658 42.3505C347.64 43.3105 348.994 43.7905 350.722 43.7905C352.429 43.7905 353.762 43.3105 354.722 42.3505C355.704 41.3905 356.194 39.9185 356.194 37.9345V23.8225H359.106V37.9025C359.106 39.7585 358.733 41.3265 357.986 42.6065C357.24 43.8652 356.226 44.8039 354.946 45.4225C353.688 46.0412 352.269 46.3505 350.69 46.3505C349.112 46.3505 347.682 46.0412 346.402 45.4225C345.144 44.8039 344.141 43.8652 343.394 42.6065C342.669 41.3265 342.306 39.7585 342.306 37.9025V23.8225H345.218ZM381.5 46.1265H378.588L366.876 28.3665V46.1265H363.964V23.7905H366.876L378.588 41.5185V23.7905H381.5V46.1265ZM400.192 23.8225V26.1905H394.112V46.1265H391.2V26.1905H385.088V23.8225H400.192ZM415.521 46.1265L410.209 37.0065H406.689V46.1265H403.777V23.8225H410.977C412.662 23.8225 414.081 24.1105 415.233 24.6865C416.406 25.2625 417.281 26.0412 417.857 27.0225C418.433 28.0039 418.721 29.1239 418.721 30.3825C418.721 31.9185 418.273 33.2732 417.377 34.4465C416.502 35.6199 415.179 36.3985 413.409 36.7825L419.009 46.1265H415.521ZM406.689 34.6705H410.977C412.555 34.6705 413.739 34.2865 414.529 33.5185C415.318 32.7292 415.713 31.6839 415.713 30.3825C415.713 29.0599 415.318 28.0359 414.529 27.3105C413.761 26.5852 412.577 26.2225 410.977 26.2225H406.689V34.6705ZM426.157 23.8225V46.1265H423.245V23.8225H426.157ZM434.032 26.1905V33.6465H442.16V36.0465H434.032V43.7265H443.12V46.1265H431.12V23.7905H443.12V26.1905H434.032ZM454.599 46.3505C453.127 46.3505 451.804 46.0945 450.631 45.5825C449.479 45.0492 448.572 44.3239 447.911 43.4065C447.249 42.4679 446.908 41.3905 446.887 40.1745H449.991C450.097 41.2199 450.524 42.1052 451.271 42.8305C452.039 43.5345 453.148 43.8865 454.599 43.8865C455.985 43.8865 457.073 43.5452 457.863 42.8625C458.673 42.1585 459.079 41.2625 459.079 40.1745C459.079 39.3212 458.844 38.6279 458.375 38.0945C457.905 37.5612 457.319 37.1559 456.615 36.8785C455.911 36.6012 454.961 36.3025 453.767 35.9825C452.295 35.5985 451.111 35.2145 450.215 34.8305C449.34 34.4465 448.583 33.8492 447.943 33.0385C447.324 32.2065 447.015 31.0972 447.015 29.7105C447.015 28.4945 447.324 27.4172 447.943 26.4785C448.561 25.5399 449.425 24.8145 450.535 24.3025C451.665 23.7905 452.956 23.5345 454.407 23.5345C456.497 23.5345 458.204 24.0572 459.527 25.1025C460.871 26.1479 461.628 27.5345 461.799 29.2625H458.599C458.492 28.4092 458.044 27.6625 457.255 27.0225C456.465 26.3612 455.42 26.0305 454.119 26.0305C452.903 26.0305 451.911 26.3505 451.143 26.9905C450.375 27.6092 449.991 28.4839 449.991 29.6145C449.991 30.4252 450.215 31.0865 450.663 31.5985C451.132 32.1105 451.697 32.5052 452.359 32.7825C453.041 33.0385 453.991 33.3372 455.207 33.6785C456.679 34.0839 457.863 34.4892 458.759 34.8945C459.655 35.2785 460.423 35.8865 461.062 36.7185C461.703 37.5292 462.023 38.6385 462.023 40.0465C462.023 41.1345 461.735 42.1585 461.159 43.1185C460.583 44.0785 459.729 44.8572 458.599 45.4545C457.468 46.0519 456.135 46.3505 454.599 46.3505Z" fill="#A7A7A7"/>
<path d="M34.1265 0C15.2785 0 0 15.2785 0 34.1265C0 52.9745 15.2785 68.253 34.1265 68.253C52.9745 68.253 68.253 52.9745 68.253 34.1265C68.253 15.2785 52.9745 0 34.1265 0ZM45.4502 49.2082C44.9135 49.7422 44.3507 50.3022 43.8939 50.7604C43.4824 51.1733 43.1921 51.6824 43.0448 52.2342C42.837 53.0131 42.6692 53.8002 42.3884 54.5556L39.9955 61.0025C38.102 61.4154 36.1425 61.6479 34.1265 61.6479V57.8802C34.3591 56.1436 33.0752 52.8906 31.0125 50.8279C30.1868 50.0022 29.7231 48.8821 29.7231 47.7138V43.309C29.7231 41.7073 28.8603 40.2349 27.4581 39.4602C25.4807 38.3662 22.668 36.8374 20.7415 35.8672C19.1618 35.0719 17.7004 34.0591 16.3862 32.8743L16.2761 32.7752C15.3364 31.9269 14.502 30.9687 13.791 29.9213C12.5002 28.0264 10.3976 24.9096 9.03114 22.884C11.848 16.6229 16.9243 11.5948 23.2322 8.86326L26.5361 10.5159C28.0003 11.248 29.7231 10.1843 29.7231 8.54677V6.99181C30.8226 6.8143 31.9413 6.70146 33.0793 6.6588L36.9736 10.5531C37.8337 11.4131 37.8337 12.8071 36.9736 13.6671L36.3282 14.3111L34.9054 15.734C34.476 16.1633 34.476 16.861 34.9054 17.2903L35.5508 17.9357C35.9801 18.365 35.9801 19.0627 35.5508 19.492L34.4499 20.5929C34.2432 20.7992 33.9631 20.915 33.671 20.9149H32.434C32.1477 20.9149 31.8725 21.0263 31.6661 21.2272L30.301 22.5552C30.1337 22.7181 30.0225 22.93 29.9834 23.1603C29.9443 23.3905 29.9794 23.6272 30.0836 23.8363L32.2289 28.1282C32.595 28.8603 32.0624 29.7217 31.245 29.7217H30.4689C30.2033 29.7217 29.9474 29.6254 29.7479 29.452L28.4709 28.3429C28.1819 28.0922 27.8326 27.921 27.4575 27.8463C27.0823 27.7715 26.6941 27.7956 26.3311 27.9163L22.0419 29.3461C21.7144 29.4552 21.4296 29.6647 21.2278 29.9448C21.0261 30.2249 20.9175 30.5613 20.9176 30.9065C20.9176 31.5299 21.2699 32.0982 21.8272 32.3775L23.3519 33.1399C24.6468 33.788 26.0751 34.1251 27.5228 34.1251C28.9704 34.1251 30.6313 37.8804 31.9262 38.5286H41.1115C42.2797 38.5286 43.3985 38.9923 44.2255 39.8179L46.1093 41.7018C46.8963 42.4891 47.3384 43.5568 47.3382 44.67C47.3379 45.5135 47.1709 46.3486 46.847 47.1275C46.523 47.9063 46.0483 48.6134 45.4502 49.2082ZM57.3821 36.6378C56.5853 36.4383 55.8904 35.9498 55.435 35.2659L52.9608 31.5546C52.5988 31.0124 52.4055 30.3751 52.4055 29.7231C52.4055 29.0711 52.5988 28.4338 52.9608 27.8916L55.6565 23.8487C55.9757 23.3712 56.4133 22.9831 56.928 22.7272L58.7141 21.8341C60.5746 25.5385 61.6479 29.7052 61.6479 34.1265C61.6479 35.3196 61.5461 36.4879 61.3975 37.641L57.3821 36.6378Z" fill="black"/>
</svg>
