<svg width="254" height="32" viewBox="0 0 254 32" fill="none" xmlns="http://www.w3.org/2000/svg">
<path d="M54.746 14.432C54.746 15.164 54.578 15.836 54.242 16.448C53.906 17.048 53.39 17.534 52.694 17.906C51.998 18.278 51.134 18.464 50.102 18.464H48.194V23H45.116V10.364H50.102C51.11 10.364 51.962 10.538 52.658 10.886C53.354 11.234 53.876 11.714 54.224 12.326C54.572 12.938 54.746 13.64 54.746 14.432ZM49.868 16.016C50.456 16.016 50.894 15.878 51.182 15.602C51.47 15.326 51.614 14.936 51.614 14.432C51.614 13.928 51.47 13.538 51.182 13.262C50.894 12.986 50.456 12.848 49.868 12.848H48.194V16.016H49.868ZM55.7364 17.96C55.7364 16.928 55.9284 16.022 56.3124 15.242C56.7084 14.462 57.2424 13.862 57.9144 13.442C58.5864 13.022 59.3364 12.812 60.1644 12.812C60.8724 12.812 61.4904 12.956 62.0184 13.244C62.5584 13.532 62.9724 13.91 63.2604 14.378V12.956H66.3384V23H63.2604V21.578C62.9604 22.046 62.5404 22.424 62.0004 22.712C61.4724 23 60.8544 23.144 60.1464 23.144C59.3304 23.144 58.5864 22.934 57.9144 22.514C57.2424 22.082 56.7084 21.476 56.3124 20.696C55.9284 19.904 55.7364 18.992 55.7364 17.96ZM63.2604 17.978C63.2604 17.21 63.0444 16.604 62.6124 16.16C62.1924 15.716 61.6764 15.494 61.0644 15.494C60.4524 15.494 59.9304 15.716 59.4984 16.16C59.0784 16.592 58.8684 17.192 58.8684 17.96C58.8684 18.728 59.0784 19.34 59.4984 19.796C59.9304 20.24 60.4524 20.462 61.0644 20.462C61.6764 20.462 62.1924 20.24 62.6124 19.796C63.0444 19.352 63.2604 18.746 63.2604 17.978ZM71.8772 12.956V23H68.7992V12.956H71.8772ZM72.4352 10.454L68.0972 12.272V10.148L72.4352 8.06V10.454ZM78.4344 23.144C77.5584 23.144 76.7784 22.994 76.0944 22.694C75.4104 22.394 74.8704 21.986 74.4744 21.47C74.0784 20.942 73.8564 20.354 73.8084 19.706H76.8504C76.8864 20.054 77.0484 20.336 77.3364 20.552C77.6244 20.768 77.9784 20.876 78.3984 20.876C78.7824 20.876 79.0764 20.804 79.2804 20.66C79.4964 20.504 79.6044 20.306 79.6044 20.066C79.6044 19.778 79.4544 19.568 79.1544 19.436C78.8544 19.292 78.3684 19.136 77.6964 18.968C76.9764 18.8 76.3764 18.626 75.8964 18.446C75.4164 18.254 75.0024 17.96 74.6544 17.564C74.3064 17.156 74.1324 16.61 74.1324 15.926C74.1324 15.35 74.2884 14.828 74.6004 14.36C74.9244 13.88 75.3924 13.502 76.0044 13.226C76.6284 12.95 77.3664 12.812 78.2184 12.812C79.4784 12.812 80.4684 13.124 81.1884 13.748C81.9204 14.372 82.3404 15.2 82.4484 16.232H79.6044C79.5564 15.884 79.4004 15.608 79.1364 15.404C78.8844 15.2 78.5484 15.098 78.1284 15.098C77.7684 15.098 77.4924 15.17 77.3004 15.314C77.1084 15.446 77.0124 15.632 77.0124 15.872C77.0124 16.16 77.1624 16.376 77.4624 16.52C77.7744 16.664 78.2544 16.808 78.9024 16.952C79.6464 17.144 80.2524 17.336 80.7204 17.528C81.1884 17.708 81.5964 18.008 81.9444 18.428C82.3044 18.836 82.4904 19.388 82.5024 20.084C82.5024 20.672 82.3344 21.2 81.9984 21.668C81.6744 22.124 81.2004 22.484 80.5764 22.748C79.9644 23.012 79.2504 23.144 78.4344 23.144ZM93.8535 17.816C93.8535 18.104 93.8355 18.404 93.7995 18.716H86.8335C86.8815 19.34 87.0795 19.82 87.4275 20.156C87.7875 20.48 88.2255 20.642 88.7415 20.642C89.5095 20.642 90.0435 20.318 90.3435 19.67H93.6195C93.4515 20.33 93.1455 20.924 92.7015 21.452C92.2695 21.98 91.7235 22.394 91.0635 22.694C90.4035 22.994 89.6655 23.144 88.8495 23.144C87.8655 23.144 86.9895 22.934 86.2215 22.514C85.4535 22.094 84.8535 21.494 84.4215 20.714C83.9895 19.934 83.7735 19.022 83.7735 17.978C83.7735 16.934 83.9835 16.022 84.4035 15.242C84.8355 14.462 85.4355 13.862 86.2035 13.442C86.9715 13.022 87.8535 12.812 88.8495 12.812C89.8215 12.812 90.6855 13.016 91.4415 13.424C92.1975 13.832 92.7855 14.414 93.2055 15.17C93.6375 15.926 93.8535 16.808 93.8535 17.816ZM90.7035 17.006C90.7035 16.478 90.5235 16.058 90.1635 15.746C89.8035 15.434 89.3535 15.278 88.8135 15.278C88.2975 15.278 87.8595 15.428 87.4995 15.728C87.1515 16.028 86.9355 16.454 86.8515 17.006H90.7035ZM99.5633 23.144C98.6873 23.144 97.9073 22.994 97.2233 22.694C96.5393 22.394 95.9993 21.986 95.6033 21.47C95.2073 20.942 94.9853 20.354 94.9373 19.706H97.9793C98.0153 20.054 98.1773 20.336 98.4653 20.552C98.7533 20.768 99.1073 20.876 99.5273 20.876C99.9113 20.876 100.205 20.804 100.409 20.66C100.625 20.504 100.733 20.306 100.733 20.066C100.733 19.778 100.583 19.568 100.283 19.436C99.9833 19.292 99.4973 19.136 98.8253 18.968C98.1053 18.8 97.5053 18.626 97.0253 18.446C96.5453 18.254 96.1313 17.96 95.7833 17.564C95.4353 17.156 95.2613 16.61 95.2613 15.926C95.2613 15.35 95.4173 14.828 95.7293 14.36C96.0533 13.88 96.5213 13.502 97.1333 13.226C97.7573 12.95 98.4953 12.812 99.3473 12.812C100.607 12.812 101.597 13.124 102.317 13.748C103.049 14.372 103.469 15.2 103.577 16.232H100.733C100.685 15.884 100.529 15.608 100.265 15.404C100.013 15.2 99.6773 15.098 99.2573 15.098C98.8973 15.098 98.6213 15.17 98.4293 15.314C98.2373 15.446 98.1413 15.632 98.1413 15.872C98.1413 16.16 98.2913 16.376 98.5913 16.52C98.9033 16.664 99.3833 16.808 100.031 16.952C100.775 17.144 101.381 17.336 101.849 17.528C102.317 17.708 102.725 18.008 103.073 18.428C103.433 18.836 103.619 19.388 103.631 20.084C103.631 20.672 103.463 21.2 103.127 21.668C102.803 22.124 102.329 22.484 101.705 22.748C101.093 23.012 100.379 23.144 99.5633 23.144Z" fill="black"/>
<path d="M112.221 14.972C112.557 14.384 113.049 13.904 113.697 13.532C114.345 13.16 115.083 12.974 115.911 12.974C116.799 12.974 117.597 13.184 118.305 13.604C119.013 14.024 119.571 14.618 119.979 15.386C120.387 16.142 120.591 17.024 120.591 18.032C120.591 19.028 120.387 19.916 119.979 20.696C119.571 21.476 119.007 22.082 118.287 22.514C117.579 22.946 116.787 23.162 115.911 23.162C115.059 23.162 114.309 22.976 113.661 22.604C113.025 22.232 112.545 21.758 112.221 21.182V23H110.583V9.68H112.221V14.972ZM118.917 18.032C118.917 17.288 118.767 16.64 118.467 16.088C118.167 15.536 117.759 15.116 117.243 14.828C116.739 14.54 116.181 14.396 115.569 14.396C114.969 14.396 114.411 14.546 113.895 14.846C113.391 15.134 112.983 15.56 112.671 16.124C112.371 16.676 112.221 17.318 112.221 18.05C112.221 18.794 112.371 19.448 112.671 20.012C112.983 20.564 113.391 20.99 113.895 21.29C114.411 21.578 114.969 21.722 115.569 21.722C116.181 21.722 116.739 21.578 117.243 21.29C117.759 20.99 118.167 20.564 118.467 20.012C118.767 19.448 118.917 18.788 118.917 18.032ZM131.243 13.136L125.303 27.644H123.611L125.555 22.892L121.577 13.136H123.395L126.491 21.128L129.551 13.136H131.243ZM146.077 14.126C146.077 15.17 145.717 16.04 144.997 16.736C144.289 17.42 143.203 17.762 141.739 17.762H139.327V23H137.689V10.454H141.739C143.155 10.454 144.229 10.796 144.961 11.48C145.705 12.164 146.077 13.046 146.077 14.126ZM141.739 16.412C142.651 16.412 143.323 16.214 143.755 15.818C144.187 15.422 144.403 14.858 144.403 14.126C144.403 12.578 143.515 11.804 141.739 11.804H139.327V16.412H141.739ZM149.751 10.454V23H148.113V10.454H149.751ZM156.729 16.718C156.729 15.494 157.005 14.396 157.557 13.424C158.109 12.44 158.859 11.672 159.807 11.12C160.767 10.568 161.829 10.292 162.993 10.292C164.361 10.292 165.555 10.622 166.575 11.282C167.595 11.942 168.339 12.878 168.807 14.09H166.845C166.497 13.334 165.993 12.752 165.333 12.344C164.685 11.936 163.905 11.732 162.993 11.732C162.117 11.732 161.331 11.936 160.635 12.344C159.939 12.752 159.393 13.334 158.997 14.09C158.601 14.834 158.403 15.71 158.403 16.718C158.403 17.714 158.601 18.59 158.997 19.346C159.393 20.09 159.939 20.666 160.635 21.074C161.331 21.482 162.117 21.686 162.993 21.686C163.905 21.686 164.685 21.488 165.333 21.092C165.993 20.684 166.497 20.102 166.845 19.346H168.807C168.339 20.546 167.595 21.476 166.575 22.136C165.555 22.784 164.361 23.108 162.993 23.108C161.829 23.108 160.767 22.838 159.807 22.298C158.859 21.746 158.109 20.984 157.557 20.012C157.005 19.04 156.729 17.942 156.729 16.718ZM176.933 23.126C175.769 23.126 174.707 22.856 173.747 22.316C172.787 21.764 172.025 21.002 171.461 20.03C170.909 19.046 170.633 17.942 170.633 16.718C170.633 15.494 170.909 14.396 171.461 13.424C172.025 12.44 172.787 11.678 173.747 11.138C174.707 10.586 175.769 10.31 176.933 10.31C178.109 10.31 179.177 10.586 180.137 11.138C181.097 11.678 181.853 12.434 182.405 13.406C182.957 14.378 183.233 15.482 183.233 16.718C183.233 17.954 182.957 19.058 182.405 20.03C181.853 21.002 181.097 21.764 180.137 22.316C179.177 22.856 178.109 23.126 176.933 23.126ZM176.933 21.704C177.809 21.704 178.595 21.5 179.291 21.092C179.999 20.684 180.551 20.102 180.947 19.346C181.355 18.59 181.559 17.714 181.559 16.718C181.559 15.71 181.355 14.834 180.947 14.09C180.551 13.334 180.005 12.752 179.309 12.344C178.613 11.936 177.821 11.732 176.933 11.732C176.045 11.732 175.253 11.936 174.557 12.344C173.861 12.752 173.309 13.334 172.901 14.09C172.505 14.834 172.307 15.71 172.307 16.718C172.307 17.714 172.505 18.59 172.901 19.346C173.309 20.102 173.861 20.684 174.557 21.092C175.265 21.5 176.057 21.704 176.933 21.704ZM186.998 10.454V18.392C186.998 19.508 187.268 20.336 187.808 20.876C188.36 21.416 189.122 21.686 190.094 21.686C191.054 21.686 191.804 21.416 192.344 20.876C192.896 20.336 193.172 19.508 193.172 18.392V10.454H194.81V18.374C194.81 19.418 194.6 20.3 194.18 21.02C193.76 21.728 193.19 22.256 192.47 22.604C191.762 22.952 190.964 23.126 190.076 23.126C189.188 23.126 188.384 22.952 187.664 22.604C186.956 22.256 186.392 21.728 185.972 21.02C185.564 20.3 185.36 19.418 185.36 18.374V10.454H186.998ZM207.406 23H205.768L199.18 13.01V23H197.542V10.436H199.18L205.768 20.408V10.436H207.406V23ZM217.921 10.454V11.786H214.501V23H212.863V11.786H209.425V10.454H217.921ZM226.543 23L223.555 17.87H221.575V23H219.937V10.454H223.987C224.935 10.454 225.733 10.616 226.381 10.94C227.041 11.264 227.533 11.702 227.857 12.254C228.181 12.806 228.343 13.436 228.343 14.144C228.343 15.008 228.091 15.77 227.587 16.43C227.095 17.09 226.351 17.528 225.355 17.744L228.505 23H226.543ZM221.575 16.556H223.987C224.875 16.556 225.541 16.34 225.985 15.908C226.429 15.464 226.651 14.876 226.651 14.144C226.651 13.4 226.429 12.824 225.985 12.416C225.553 12.008 224.887 11.804 223.987 11.804H221.575V16.556ZM232.526 10.454V23H230.888V10.454H232.526ZM236.956 11.786V15.98H241.528V17.33H236.956V21.65H242.068V23H235.318V10.436H242.068V11.786H236.956ZM248.524 23.126C247.696 23.126 246.952 22.982 246.292 22.694C245.644 22.394 245.134 21.986 244.762 21.47C244.39 20.942 244.198 20.336 244.186 19.652H245.932C245.992 20.24 246.232 20.738 246.652 21.146C247.084 21.542 247.708 21.74 248.524 21.74C249.304 21.74 249.916 21.548 250.36 21.164C250.816 20.768 251.044 20.264 251.044 19.652C251.044 19.172 250.912 18.782 250.648 18.482C250.384 18.182 250.054 17.954 249.658 17.798C249.262 17.642 248.728 17.474 248.056 17.294C247.228 17.078 246.562 16.862 246.058 16.646C245.566 16.43 245.14 16.094 244.78 15.638C244.432 15.17 244.258 14.546 244.258 13.766C244.258 13.082 244.432 12.476 244.78 11.948C245.128 11.42 245.614 11.012 246.238 10.724C246.874 10.436 247.6 10.292 248.416 10.292C249.592 10.292 250.552 10.586 251.296 11.174C252.052 11.762 252.478 12.542 252.574 13.514H250.774C250.714 13.034 250.462 12.614 250.018 12.254C249.574 11.882 248.986 11.696 248.254 11.696C247.57 11.696 247.012 11.876 246.58 12.236C246.148 12.584 245.932 13.076 245.932 13.712C245.932 14.168 246.058 14.54 246.31 14.828C246.574 15.116 246.892 15.338 247.264 15.494C247.648 15.638 248.182 15.806 248.866 15.998C249.694 16.226 250.36 16.454 250.864 16.682C251.368 16.898 251.8 17.24 252.16 17.708C252.52 18.164 252.7 18.788 252.7 19.58C252.7 20.192 252.538 20.768 252.214 21.308C251.89 21.848 251.41 22.286 250.774 22.622C250.138 22.958 249.388 23.126 248.524 23.126Z" fill="#A7A7A7"/>
<path d="M16 0C7.16323 0 0 7.16323 0 16C0 24.8368 7.16323 32 16 32C24.8368 32 32 24.8368 32 16C32 7.16323 24.8368 0 16 0ZM21.309 23.071C21.0574 23.3213 20.7935 23.5839 20.5794 23.7987C20.3865 23.9923 20.2503 24.231 20.1813 24.4897C20.0839 24.8548 20.0052 25.2239 19.8735 25.5781L18.7516 28.6006C17.8639 28.7942 16.9452 28.9032 16 28.9032V27.1368C16.109 26.3226 15.5071 24.7974 14.54 23.8303C14.1529 23.4432 13.9355 22.9181 13.9355 22.3703V20.3052C13.9355 19.5542 13.531 18.8639 12.8735 18.5006C11.9465 17.9877 10.6277 17.271 9.72452 16.8161C8.98387 16.4432 8.29871 15.9684 7.68258 15.4129L7.63097 15.3665C7.19036 14.9687 6.79917 14.5195 6.46581 14.0284C5.86065 13.14 4.87484 11.6787 4.23419 10.729C5.55484 7.79355 7.93484 5.43613 10.8923 4.15548L12.4413 4.93032C13.1277 5.27355 13.9355 4.77484 13.9355 4.0071V3.27806C14.451 3.19484 14.9755 3.14194 15.509 3.12194L17.3348 4.94774C17.7381 5.35097 17.7381 6.00452 17.3348 6.40774L17.0323 6.70968L16.3652 7.37677C16.1639 7.57806 16.1639 7.90516 16.3652 8.10645L16.6677 8.40903C16.869 8.61032 16.869 8.93742 16.6677 9.13871L16.1516 9.65484C16.0547 9.75156 15.9234 9.80586 15.7865 9.80581H15.2065C15.0723 9.80581 14.9432 9.85806 14.8465 9.95226L14.2065 10.5748C14.128 10.6512 14.0759 10.7506 14.0575 10.8585C14.0392 10.9665 14.0557 11.0775 14.1045 11.1755L15.1103 13.1877C15.2819 13.531 15.0323 13.9348 14.649 13.9348H14.2852C14.1606 13.9348 14.0406 13.8897 13.9471 13.8084L13.3484 13.2884C13.2129 13.1709 13.0492 13.0906 12.8733 13.0555C12.6974 13.0205 12.5154 13.0318 12.3452 13.0884L10.3342 13.7587C10.1807 13.8099 10.0471 13.9081 9.95253 14.0394C9.85793 14.1707 9.80705 14.3285 9.8071 14.4903C9.8071 14.7826 9.97226 15.049 10.2335 15.18L10.9484 15.5374C11.5555 15.8413 12.2252 15.9994 12.9039 15.9994C13.5826 15.9994 14.3613 17.76 14.9684 18.0639H19.2748C19.8226 18.0639 20.3471 18.2813 20.7348 18.6684L21.6181 19.5516C21.987 19.9207 22.1943 20.4213 22.1942 20.9432C22.1941 21.3387 22.1158 21.7303 21.9639 22.0954C21.812 22.4606 21.5894 22.7921 21.309 23.071ZM26.9032 17.1774C26.5297 17.0839 26.2039 16.8548 25.9903 16.5342L24.8303 14.7942C24.6606 14.54 24.57 14.2412 24.57 13.9355C24.57 13.6298 24.6606 13.331 24.8303 13.0768L26.0942 11.1813C26.2439 10.9574 26.449 10.7755 26.6903 10.6555L27.5277 10.2368C28.4 11.9735 28.9032 13.9271 28.9032 16C28.9032 16.5594 28.8555 17.1071 28.7858 17.6477L26.9032 17.1774Z" fill="black"/>
</svg>
